<svg xmlns="http://www.w3.org/2000/svg" version="1.1" xmlns:xlink="http://www.w3.org/1999/xlink" xmlns:svgjs="http://svgjs.dev/svgjs" width="2000" height="691" viewBox="0 0 2000 691"><g transform="matrix(1,0,0,1,-1.2121212121212466,-0.7552501571160519)"><svg viewBox="0 0 396 137" data-background-color="#ffffff" preserveAspectRatio="xMidYMid meet" height="691" width="2000" xmlns="http://www.w3.org/2000/svg" xmlns:xlink="http://www.w3.org/1999/xlink"><g id="tight-bounds" transform="matrix(1,0,0,1,0.2400000000000091,0.14973845372634287)"><svg viewBox="0 0 395.52 136.70052247326365" height="136.70052247326365" width="395.52"><g><svg viewBox="0 0 640.401428315915 221.3369989972944" height="136.70052247326365" width="395.52"><g transform="matrix(1,0,0,1,244.88142831591506,64.44063078968168)"><svg viewBox="0 0 395.52 92.45573741793102" height="92.45573741793102" width="395.52"><g id="textblocktransform"><svg viewBox="0 0 395.52 92.45573741793102" height="92.45573741793102" width="395.52" id="textblock"><g><rect width="75.97963967558059" height="4.496985999856551" y="74.79858648696826" fill="#000000" data-fill-palette-color="tertiary"></rect><rect width="75.97963967558059" height="4.496985999856551" y="74.79858648696826" x="319.5403603244194" fill="#000000" data-fill-palette-color="tertiary"></rect></g><g><svg viewBox="0 0 395.52 49.86620689655172" height="49.86620689655172" width="395.52"><g transform="matrix(1,0,0,1,0,0)"><svg width="395.52" viewBox="1.35 -36.3 371.16999999999996 46.8" height="49.86620689655172" data-palette-color="#000000"><path d="M15-26.4L20.6-26.4 20.6-19.65 15-19.65 15-9.6Q15-7.8 15.6-6.98 16.2-6.15 17.8-6.15L17.8-6.15 20.6-6.15 20.6-0.3Q19.4 0.1 17.5 0.35 15.6 0.6 14.2 0.6L14.2 0.6Q9.8 0.6 7.43-1 5.05-2.6 5.05-6.45L5.05-6.45 5.05-19.65 1.35-19.65 1.35-26.4 5.45-26.4 7.6-34.4 15-34.4 15-26.4ZM35.15-23.65Q36.75-25.25 38.9-26.13 41.05-27 43.4-27L43.4-27Q48-27 50.3-24.45 52.6-21.9 52.6-17.1L52.6-17.1 52.6 0 42.65 0 42.65-15.9Q42.65-17.6 41.77-18.63 40.9-19.65 39.3-19.65L39.3-19.65Q37.45-19.65 36.3-18.45 35.15-17.25 35.15-15.5L35.15-15.5 35.15 0 25.2 0 25.2-36.25 35.15-36.25 35.15-23.65ZM72.2-27Q79.45-27 83.27-23.6 87.09-20.2 87.09-13.2L87.09-13.2 87.09-11.5 67.3-11.5Q67.3-8.65 68.57-7.2 69.84-5.75 72.59-5.75L72.59-5.75Q75.09-5.75 76.27-6.8 77.45-7.85 77.45-9.6L77.45-9.6 87.09-9.6Q87.09-4.8 83.45-2.1 79.8 0.6 72.8 0.6L72.8 0.6Q65.45 0.6 61.4-2.83 57.34-6.25 57.34-13.2L57.34-13.2Q57.34-20 61.3-23.5 65.25-27 72.2-27L72.2-27ZM72.59-20.65Q67.9-20.65 67.34-16.2L67.34-16.2 77.05-16.2Q77.05-18.25 75.87-19.45 74.7-20.65 72.59-20.65L72.59-20.65ZM120.54-26.4L126.14-26.4 126.14-19.65 120.54-19.65 120.54-9.6Q120.54-7.8 121.14-6.98 121.74-6.15 123.34-6.15L123.34-6.15 126.14-6.15 126.14-0.3Q124.94 0.1 123.04 0.35 121.14 0.6 119.74 0.6L119.74 0.6Q115.34 0.6 112.97-1 110.59-2.6 110.59-6.45L110.59-6.45 110.59-19.65 106.89-19.65 106.89-26.4 110.99-26.4 113.14-34.4 120.54-34.4 120.54-26.4ZM140.69-16.3L149.14-26.4 160.74-26.4 150.99-15.75 160.99 0 149.69 0 144.14-9.05 140.69-5.7 140.69 0 130.74 0 130.74-36.3 140.69-36.3 140.69-16.3ZM187.69-34.4Q190.29-34.4 192.46-33.33 194.64-32.25 195.91-30.3 197.19-28.35 197.19-25.95L197.19-25.95Q197.19-19.6 191.44-17.95L191.44-17.95 191.44-17.75Q197.99-16.25 197.99-9.15L197.99-9.15Q197.99-6.45 196.66-4.38 195.34-2.3 193.04-1.15 190.74 0 187.99 0L187.99 0 164.79 0 164.79-34.4 187.69-34.4ZM175.84-26.85L175.84-21 183.44-21Q184.54-21 185.26-21.78 185.99-22.55 185.99-23.7L185.99-23.7 185.99-24.2Q185.99-25.3 185.24-26.08 184.49-26.85 183.44-26.85L183.44-26.85 175.84-26.85ZM175.84-13.9L175.84-8 184.24-8Q185.34-8 186.06-8.78 186.79-9.55 186.79-10.7L186.79-10.7 186.79-11.2Q186.79-12.35 186.06-13.13 185.34-13.9 184.24-13.9L184.24-13.9 175.84-13.9ZM213.28 0L203.33 0 203.33-36.25 213.28-36.25 213.28 0ZM233.28-27Q240.23-27 244.21-23.48 248.18-19.95 248.18-13.2L248.18-13.2Q248.18-6.45 244.21-2.93 240.23 0.6 233.28 0.6L233.28 0.6Q226.33 0.6 222.38-2.9 218.43-6.4 218.43-13.2L218.43-13.2Q218.43-20 222.38-23.5 226.33-27 233.28-27L233.28-27ZM233.28-20.25Q228.38-20.25 228.38-14.6L228.38-14.6 228.38-11.75Q228.38-6.15 233.28-6.15L233.28-6.15Q238.23-6.15 238.23-11.75L238.23-11.75 238.23-14.6Q238.23-20.25 233.28-20.25L233.28-20.25ZM282.68-31.35Q282.68-28.3 281.15-26.65 279.63-25 276.58-24.2L276.58-24.2Q278.03-23.1 278.85-21.63 279.68-20.15 279.68-18.5L279.68-18.5Q279.68-14.3 276.5-12.15 273.33-10 268.58-10L268.58-10 264.78-10Q261.63-10 261.63-8.55L261.63-8.55Q261.63-7.85 262.33-7.43 263.03-7 264.78-7L264.78-7 273.78-7Q278.18-7 280.43-4.7 282.68-2.4 282.68 1.45L282.68 1.45Q282.68 4.3 281.18 6.35 279.68 8.4 277.13 9.45 274.58 10.5 271.58 10.5L271.58 10.5 256.88 10.5Q255.08 10.5 253.55 9.65 252.03 8.8 251.13 7.33 250.23 5.85 250.23 4.05L250.23 4.05Q250.23 2.1 251.43 0.53 252.63-1.05 254.43-1.85L254.43-1.85Q253.23-2.7 252.53-3.9 251.83-5.1 251.83-6.5L251.83-6.5Q251.83-8.45 253.28-10.03 254.73-11.6 256.88-12.15L256.88-12.15Q254.93-13.4 253.78-15.03 252.63-16.65 252.63-18.45L252.63-18.45Q252.63-23.05 256.35-25.03 260.08-27 266.23-27L266.23-27Q268.93-27 270.58-26.7L270.58-26.7Q273.03-28.25 273.75-29.53 274.48-30.8 274.48-31.35L274.48-31.35 282.68-31.35ZM266.13-21.8Q264.48-21.8 263.43-20.95 262.38-20.1 262.38-18.5L262.38-18.5Q262.38-16.85 263.35-16.03 264.33-15.2 266.13-15.2L266.13-15.2Q267.93-15.2 268.95-16.03 269.98-16.85 269.98-18.5L269.98-18.5Q269.98-20.15 268.95-20.98 267.93-21.8 266.13-21.8L266.13-21.8ZM262.28 0Q261.13 0 260.4 0.63 259.68 1.25 259.68 2.4L259.68 2.4Q259.68 3.55 260.43 4.25 261.18 4.95 262.28 4.95L262.28 4.95 270.08 4.95Q271.18 4.95 271.95 4.28 272.73 3.6 272.73 2.45L272.73 2.45Q272.73 1.3 271.98 0.65 271.23 0 270.08 0L270.08 0 262.28 0ZM316.53-31.35Q316.53-28.3 315-26.65 313.48-25 310.43-24.2L310.43-24.2Q311.88-23.1 312.7-21.63 313.53-20.15 313.53-18.5L313.53-18.5Q313.53-14.3 310.35-12.15 307.18-10 302.43-10L302.43-10 298.63-10Q295.48-10 295.48-8.55L295.48-8.55Q295.48-7.85 296.18-7.43 296.88-7 298.63-7L298.63-7 307.63-7Q312.03-7 314.28-4.7 316.53-2.4 316.53 1.45L316.53 1.45Q316.53 4.3 315.03 6.35 313.53 8.4 310.98 9.45 308.43 10.5 305.43 10.5L305.43 10.5 290.73 10.5Q288.93 10.5 287.4 9.65 285.88 8.8 284.98 7.33 284.08 5.85 284.08 4.05L284.08 4.05Q284.08 2.1 285.28 0.53 286.48-1.05 288.28-1.85L288.28-1.85Q287.08-2.7 286.38-3.9 285.68-5.1 285.68-6.5L285.68-6.5Q285.68-8.45 287.13-10.03 288.58-11.6 290.73-12.15L290.73-12.15Q288.78-13.4 287.63-15.03 286.48-16.65 286.48-18.45L286.48-18.45Q286.48-23.05 290.2-25.03 293.93-27 300.08-27L300.08-27Q302.78-27 304.43-26.7L304.43-26.7Q306.88-28.25 307.6-29.53 308.33-30.8 308.33-31.35L308.33-31.35 316.53-31.35ZM299.98-21.8Q298.33-21.8 297.28-20.95 296.23-20.1 296.23-18.5L296.23-18.5Q296.23-16.85 297.2-16.03 298.18-15.2 299.98-15.2L299.98-15.2Q301.78-15.2 302.8-16.03 303.83-16.85 303.83-18.5L303.83-18.5Q303.83-20.15 302.8-20.98 301.78-21.8 299.98-21.8L299.98-21.8ZM296.13 0Q294.98 0 294.25 0.63 293.53 1.25 293.53 2.4L293.53 2.4Q293.53 3.55 294.28 4.25 295.03 4.95 296.13 4.95L296.13 4.95 303.93 4.95Q305.03 4.95 305.8 4.28 306.58 3.6 306.58 2.45L306.58 2.45Q306.58 1.3 305.83 0.65 305.08 0 303.93 0L303.93 0 296.13 0ZM333.82-27Q341.07-27 344.9-23.6 348.72-20.2 348.72-13.2L348.72-13.2 348.72-11.5 328.92-11.5Q328.92-8.65 330.2-7.2 331.47-5.75 334.22-5.75L334.22-5.75Q336.72-5.75 337.9-6.8 339.07-7.85 339.07-9.6L339.07-9.6 348.72-9.6Q348.72-4.8 345.07-2.1 341.42 0.6 334.42 0.6L334.42 0.6Q327.07 0.6 323.02-2.83 318.97-6.25 318.97-13.2L318.97-13.2Q318.97-20 322.92-23.5 326.87-27 333.82-27L333.82-27ZM334.22-20.65Q329.52-20.65 328.97-16.2L328.97-16.2 338.67-16.2Q338.67-18.25 337.5-19.45 336.32-20.65 334.22-20.65L334.22-20.65ZM369.57-27.05Q370.72-27.05 371.62-26.78 372.52-26.5 372.52-26.45L372.52-26.45 372.52-18.1 369.32-18.1Q366.22-18.1 364.85-16.5 363.47-14.9 363.47-11.75L363.47-11.75 363.47 0 353.52 0 353.52-26.4 361.67-26.4 362.32-22.4Q363.22-24.7 365.17-25.88 367.12-27.05 369.57-27.05L369.57-27.05Z" opacity="1" transform="matrix(1,0,0,1,0,0)" fill="#000000" class="wordmark-text-0" data-fill-palette-color="primary" id="text-0"></path></svg></g></svg></g><g transform="matrix(1,0,0,1,75.97963967558059,61.63842155586206)"><svg viewBox="0 0 243.5607206488388 30.81731586206896" height="30.81731586206896" width="243.5607206488388"><g transform="matrix(1,0,0,1,8,0)"><svg width="227.5607206488388" viewBox="4.45 -37.13 361.8 49.010000000000005" height="30.81731586206896" data-palette-color="#ff4136"><path d="M15.3 0.53L15.3 0.53Q13.25 0.53 11.3 0.11 9.35-0.3 7.8-1 6.25-1.7 5.35-2.58 4.45-3.45 4.45-4.35L4.45-4.35Q4.45-5.13 4.94-5.56 5.43-6 6.23-6L6.23-6Q6.7-6 7.16-5.8 7.63-5.6 8.22-5.2L8.22-5.2Q9.03-4.6 9.96-4.04 10.9-3.48 12.2-3.11 13.5-2.75 15.33-2.75L15.33-2.75Q18.13-2.75 19.84-3.65 21.55-4.55 21.55-6.6L21.55-6.6Q21.55-7.8 20.64-8.55 19.73-9.3 18.16-9.79 16.6-10.28 14.63-10.65L14.63-10.65Q12.13-11.13 10.01-11.91 7.9-12.7 6.64-14.09 5.38-15.48 5.38-17.78L5.38-17.78Q5.38-19.55 6.25-20.8 7.13-22.05 8.58-22.84 10.03-23.63 11.81-24 13.6-24.38 15.43-24.38L15.43-24.38Q17.25-24.38 18.95-24.05 20.65-23.73 21.98-23.14 23.3-22.55 24.09-21.75 24.88-20.95 24.88-20.03L24.88-20.03Q24.88-19.3 24.39-18.9 23.9-18.5 23.18-18.5L23.18-18.5Q22.65-18.5 22.25-18.66 21.85-18.82 21.35-19.18L21.35-19.18Q20.65-19.78 19.28-20.45 17.9-21.13 15.48-21.13L15.48-21.13Q14.58-21.13 13.55-20.98 12.53-20.83 11.61-20.44 10.7-20.05 10.14-19.38 9.58-18.7 9.58-17.68L9.58-17.68Q9.58-16.5 10.44-15.79 11.3-15.08 12.79-14.64 14.28-14.2 16.18-13.83L16.18-13.83Q18.73-13.33 20.94-12.56 23.15-11.8 24.49-10.44 25.83-9.08 25.83-6.75L25.83-6.75Q25.83-4.28 24.38-2.66 22.93-1.05 20.54-0.26 18.15 0.53 15.3 0.53ZM41.15-20.58L36.75-20.58Q34.12-20.58 34.12-22.2L34.12-22.2Q34.12-23.8 36.75-23.8L36.75-23.8 41.15-23.8 41.15-30.28Q41.15-32.95 43.27-32.95L43.27-32.95Q45.37-32.95 45.37-30.28L45.37-30.28 45.37-23.8 53.27-23.8Q55.92-23.8 55.92-22.2L55.92-22.2Q55.92-20.58 53.27-20.58L53.27-20.58 45.37-20.58 45.37-8.18Q45.37-6.13 45.92-4.9 46.47-3.68 47.44-3.15 48.4-2.63 49.62-2.63L49.62-2.63Q51.5-2.63 52.6-3.84 53.7-5.05 53.85-7.25L53.85-7.25Q54-7.9 54.36-8.39 54.72-8.88 55.55-8.88L55.55-8.88Q56.32-8.88 56.72-8.38 57.12-7.88 57.12-6.85L57.12-6.85Q57.12-4.6 56.06-2.95 55-1.3 53.21-0.4 51.42 0.5 49.25 0.5L49.25 0.5Q47.05 0.5 45.2-0.2 43.35-0.9 42.25-2.56 41.15-4.23 41.15-7.13L41.15-7.13 41.15-20.58ZM88.27 0.08L85.22 0.08Q84 0.08 83.47-0.44 82.95-0.95 82.85-1.88L82.85-1.88 82.75-3.2Q82.32-2.5 81.2-1.64 80.07-0.78 78.38-0.16 76.7 0.45 74.5 0.45L74.5 0.45Q71.75 0.45 69.58-0.41 67.42-1.28 66.17-2.98 64.92-4.67 64.92-7.2L64.92-7.2Q64.92-9.63 66.28-11.3 67.65-12.98 70.02-13.86 72.4-14.75 75.45-14.75L75.45-14.75Q77.02-14.75 78.51-14.43 80-14.1 81.11-13.66 82.22-13.23 82.7-12.88L82.7-12.88 82.7-16.45Q82.7-17.8 82.07-18.7 81.45-19.6 80.42-20.14 79.4-20.68 78.16-20.9 76.92-21.13 75.7-21.13L75.7-21.13Q74.07-21.13 72.42-20.74 70.77-20.35 69.65-19.85L69.65-19.85Q69.27-19.7 68.91-19.64 68.55-19.58 68.3-19.58L68.3-19.58Q67.5-19.58 66.98-19.96 66.47-20.35 66.47-21.05L66.47-21.05Q66.47-21.7 66.97-22.11 67.47-22.53 68.2-22.85L68.2-22.85Q69.5-23.45 71.61-23.91 73.72-24.38 76.2-24.38L76.2-24.38Q78.1-24.38 79.93-23.96 81.77-23.55 83.3-22.69 84.82-21.83 85.72-20.43 86.62-19.03 86.62-17.05L86.62-17.05 86.62-3.15 88.82-3.15Q89.77-3.15 90.26-2.75 90.75-2.35 90.75-1.58L90.75-1.58Q90.75-0.85 90.18-0.39 89.62 0.08 88.27 0.08L88.27 0.08ZM82.7-6.75L82.7-9.73Q82.2-10.18 81.03-10.68 79.87-11.18 78.46-11.51 77.05-11.85 75.75-11.85L75.75-11.85Q72.67-11.85 70.77-10.75 68.87-9.65 68.87-7.28L68.87-7.28Q68.87-5.58 69.67-4.54 70.47-3.5 71.87-3.05 73.27-2.6 75.07-2.6L75.07-2.6Q76.87-2.6 78.45-3.33 80.02-4.05 81.15-5.03 82.27-6 82.7-6.75L82.7-6.75ZM101.19 11.88L101.19 11.88Q98.69 11.88 98.69 10.28L98.69 10.28Q98.69 9.47 99.29 9.08 99.89 8.68 101.24 8.55L101.24 8.55Q102.54 8.43 103.43 7.53 104.32 6.63 105.14 4.8 105.97 2.98 107.02 0.1L107.02 0.1 107.12-0.18Q105.44-0.38 104.84-2.2L104.84-2.2 98.14-21.13Q97.94-21.73 97.94-22.15L97.94-22.15Q97.94-23.08 98.53-23.6 99.12-24.13 99.94-24.13L99.94-24.13Q100.97-24.13 101.49-23.56 102.02-23 102.37-21.83L102.37-21.83 108.42-4.38 114.47-21.73Q114.82-22.88 115.33-23.5 115.84-24.13 116.94-24.13L116.94-24.13Q117.77-24.13 118.31-23.63 118.84-23.13 118.84-22.23L118.84-22.23Q118.84-22 118.81-21.73 118.77-21.45 118.64-21.13L118.64-21.13 111.27 0Q110.14 3.23 109.14 5.5 108.14 7.78 107.06 9.18 105.97 10.58 104.56 11.23 103.14 11.88 101.19 11.88ZM171.09 0.48L171.09 0.48Q169.09 0.48 166.98-0.21 164.86-0.9 163.06-2.38 161.26-3.85 160.15-6.23 159.04-8.6 159.04-11.95L159.04-11.95Q159.04-15.3 160.15-17.68 161.26-20.05 163.06-21.53 164.86-23 166.98-23.69 169.09-24.38 171.09-24.38L171.09-24.38Q173.71-24.38 175.64-23.5 177.56-22.63 178.84-21.35L178.84-21.35Q179.41-20.93 179.69-20.41 179.96-19.9 179.96-19.45L179.96-19.45Q179.96-18.65 179.4-18.18 178.84-17.7 178.14-17.7L178.14-17.7Q177.56-17.7 177.13-17.96 176.69-18.23 176.29-18.73L176.29-18.73Q175.46-19.83 174.16-20.46 172.86-21.1 171.09-21.1L171.09-21.1Q169.76-21.1 168.4-20.55 167.04-20 165.9-18.89 164.76-17.78 164.06-16.04 163.36-14.3 163.36-11.95L163.36-11.95Q163.36-9.6 164.06-7.86 164.76-6.13 165.9-5.01 167.04-3.9 168.4-3.35 169.76-2.8 171.09-2.8L171.09-2.8Q172.86-2.8 174.16-3.45 175.46-4.1 176.29-5.18L176.29-5.18Q176.69-5.65 177.13-5.94 177.56-6.23 178.14-6.23L178.14-6.23Q178.84-6.23 179.4-5.75 179.96-5.28 179.96-4.48L179.96-4.48Q179.96-4 179.69-3.5 179.41-3 178.84-2.58L178.84-2.58Q177.56-1.28 175.64-0.4 173.71 0.48 171.09 0.48ZM192.99-24.05L192.99-24.05Q195.09-24.05 195.09-21.35L195.09-21.35 195.09-10.28Q195.09-6.3 196.34-4.53 197.59-2.75 200.38-2.75L200.38-2.75Q202.36-2.75 203.91-3.7 205.46-4.65 206.36-6.2 207.26-7.75 207.26-9.58L207.26-9.58 207.26-21.35Q207.26-24.05 209.38-24.05L209.38-24.05Q211.49-24.05 211.49-21.35L211.49-21.35 211.49-2.25Q211.49 0.45 209.38 0.45L209.38 0.45Q207.71 0.45 207.38-1.43L207.38-1.43 207.36-3.58Q206.09-1.78 203.96-0.61 201.84 0.55 199.13 0.55L199.13 0.55Q196.51 0.55 194.66-0.45 192.81-1.45 191.84-3.7 190.86-5.95 190.86-9.68L190.86-9.68 190.86-21.35Q190.86-24.05 192.99-24.05ZM231.03-13.3L231.03-3.15 235.68-3.15Q236.86-3.15 237.38-2.71 237.91-2.27 237.91-1.58L237.91-1.58Q237.91-0.88 237.37-0.44 236.83 0 235.68 0L235.68 0 223.81 0Q222.63 0 222.07-0.44 221.51-0.88 221.51-1.58L221.51-1.58Q221.51-2.27 222.03-2.71 222.56-3.15 223.61-3.15L223.61-3.15 227.21-3.15 227.21-20.65 223.61-20.65Q222.56-20.65 222-21.08 221.43-21.5 221.43-22.23L221.43-22.23Q221.43-22.98 222.12-23.39 222.81-23.8 224.13-23.8L224.13-23.8 228.03-23.8Q229.03-23.8 229.75-23.3 230.46-22.8 230.73-21.9L230.73-21.9 230.78-19.58Q232.28-21.73 234.67-23.05 237.06-24.38 239.61-24.38L239.61-24.38Q241.11-24.38 242.29-23.89 243.48-23.4 243.48-22.18L243.48-22.18Q243.48-21.2 242.93-20.66 242.38-20.13 241.46-20.13L241.46-20.13Q240.96-20.13 240.56-20.21 240.16-20.3 239.73-20.43L239.73-20.43Q239.31-20.53 238.84-20.59 238.38-20.65 237.91-20.65L237.91-20.65Q236.26-20.65 234.67-19.7 233.08-18.75 232.06-17.09 231.03-15.43 231.03-13.3L231.03-13.3ZM254.88-3.25L254.88-3.25 261.35-3.25 261.35-20.58 256.31-20.58Q255-20.58 254.34-21 253.68-21.43 253.68-22.2L253.68-22.2Q253.68-22.98 254.34-23.39 255-23.8 256.31-23.8L256.31-23.8 262.85-23.8Q265.56-23.8 265.56-21.1L265.56-21.1 265.56-3.25 271.81-3.25Q273.08-3.25 273.69-2.83 274.31-2.4 274.31-1.6L274.31-1.6Q274.31-0.85 273.69-0.43 273.08 0 271.81 0L271.81 0 254.88 0Q253.63 0 253.02-0.43 252.4-0.85 252.4-1.6L252.4-1.6Q252.4-2.4 253.02-2.83 253.63-3.25 254.88-3.25ZM259.73-33.58L259.73-33.58Q259.73-34.55 260.2-35.36 260.68-36.18 261.5-36.65 262.33-37.13 263.33-37.13L263.33-37.13Q264.33-37.13 265.14-36.65 265.95-36.18 266.43-35.36 266.9-34.55 266.9-33.58L266.9-33.58Q266.9-32.58 266.43-31.75 265.95-30.93 265.14-30.45 264.33-29.98 263.33-29.98L263.33-29.98Q262.33-29.98 261.5-30.45 260.68-30.93 260.2-31.75 259.73-32.58 259.73-33.58ZM294.03 0.53L294.03 0.53Q291.85 0.53 289.68-0.19 287.5-0.9 285.7-2.41 283.9-3.93 282.83-6.3 281.75-8.68 281.75-11.95L281.75-11.95Q281.75-15.23 282.83-17.59 283.9-19.95 285.7-21.45 287.5-22.95 289.68-23.66 291.85-24.38 294.03-24.38L294.03-24.38Q296.2-24.38 298.36-23.66 300.53-22.95 302.33-21.45 304.13-19.95 305.2-17.59 306.28-15.23 306.28-11.95L306.28-11.95Q306.28-8.68 305.2-6.3 304.13-3.93 302.33-2.41 300.53-0.9 298.36-0.19 296.2 0.53 294.03 0.53ZM294.03-2.75L294.03-2.75Q295.43-2.75 296.83-3.25 298.23-3.75 299.39-4.84 300.55-5.93 301.26-7.69 301.98-9.45 301.98-11.95L301.98-11.95Q301.98-14.43 301.26-16.16 300.55-17.9 299.39-19 298.23-20.1 296.83-20.61 295.43-21.13 294.03-21.13L294.03-21.13Q292.63-21.13 291.21-20.61 289.8-20.1 288.63-19 287.45-17.9 286.75-16.16 286.05-14.43 286.05-11.95L286.05-11.95Q286.05-9.45 286.75-7.69 287.45-5.93 288.63-4.84 289.8-3.75 291.21-3.25 292.63-2.75 294.03-2.75ZM316.77-24.05L316.77-24.05Q318.87-24.05 318.87-21.35L318.87-21.35 318.87-10.28Q318.87-6.3 320.12-4.53 321.37-2.75 324.17-2.75L324.17-2.75Q326.15-2.75 327.7-3.7 329.25-4.65 330.15-6.2 331.05-7.75 331.05-9.58L331.05-9.58 331.05-21.35Q331.05-24.05 333.17-24.05L333.17-24.05Q335.27-24.05 335.27-21.35L335.27-21.35 335.27-2.25Q335.27 0.45 333.17 0.45L333.17 0.45Q331.5 0.45 331.17-1.43L331.17-1.43 331.15-3.58Q329.87-1.78 327.75-0.61 325.62 0.55 322.92 0.55L322.92 0.55Q320.3 0.55 318.45-0.45 316.6-1.45 315.62-3.7 314.65-5.95 314.65-9.68L314.65-9.68 314.65-21.35Q314.65-24.05 316.77-24.05ZM355.72 0.53L355.72 0.53Q353.67 0.53 351.72 0.11 349.77-0.3 348.22-1 346.67-1.7 345.77-2.58 344.87-3.45 344.87-4.35L344.87-4.35Q344.87-5.13 345.36-5.56 345.85-6 346.65-6L346.65-6Q347.12-6 347.58-5.8 348.05-5.6 348.65-5.2L348.65-5.2Q349.45-4.6 350.38-4.04 351.32-3.48 352.62-3.11 353.92-2.75 355.75-2.75L355.75-2.75Q358.55-2.75 360.26-3.65 361.97-4.55 361.97-6.6L361.97-6.6Q361.97-7.8 361.06-8.55 360.15-9.3 358.58-9.79 357.02-10.28 355.05-10.65L355.05-10.65Q352.55-11.13 350.43-11.91 348.32-12.7 347.06-14.09 345.8-15.48 345.8-17.78L345.8-17.78Q345.8-19.55 346.67-20.8 347.55-22.05 349-22.84 350.45-23.63 352.23-24 354.02-24.38 355.85-24.38L355.85-24.38Q357.67-24.38 359.37-24.05 361.07-23.73 362.4-23.14 363.72-22.55 364.51-21.75 365.3-20.95 365.3-20.03L365.3-20.03Q365.3-19.3 364.81-18.9 364.32-18.5 363.6-18.5L363.6-18.5Q363.07-18.5 362.67-18.66 362.27-18.82 361.77-19.18L361.77-19.18Q361.07-19.78 359.7-20.45 358.32-21.13 355.9-21.13L355.9-21.13Q355-21.13 353.97-20.98 352.95-20.83 352.03-20.44 351.12-20.05 350.56-19.38 350-18.7 350-17.68L350-17.68Q350-16.5 350.86-15.79 351.72-15.08 353.21-14.64 354.7-14.2 356.6-13.83L356.6-13.83Q359.15-13.33 361.36-12.56 363.57-11.8 364.91-10.44 366.25-9.08 366.25-6.75L366.25-6.75Q366.25-4.28 364.8-2.66 363.35-1.05 360.96-0.26 358.57 0.53 355.72 0.53Z" opacity="1" transform="matrix(1,0,0,1,0,0)" fill="#ff4136" class="slogan-text-1" data-fill-palette-color="secondary" id="text-1"></path></svg></g></svg></g></svg></g></svg></g><g><svg viewBox="0 0 221.3369989972944 221.3369989972944" height="221.3369989972944" width="221.3369989972944"><g><svg></svg></g><g id="icon-0"><svg viewBox="0 0 221.3369989972944 221.3369989972944" height="221.3369989972944" width="221.3369989972944"><g><path d="M0 110.668c0-61.121 49.548-110.668 110.668-110.668 61.121 0 110.668 49.548 110.669 110.668 0 61.121-49.548 110.668-110.669 110.669-61.121 0-110.668-49.548-110.668-110.669zM110.668 216.84c58.637 0 106.172-47.535 106.172-106.171 0-58.637-47.535-106.172-106.172-106.172-58.637 0-106.172 47.535-106.171 106.172 0 58.637 47.535 106.172 106.171 106.171z" data-fill-palette-color="tertiary" fill="#000000" stroke="transparent"></path></g><g transform="matrix(1,0,0,1,43.894899199436665,44.65945605205984)"><svg viewBox="0 0 133.54720059842106 132.0180868931747" height="132.0180868931747" width="133.54720059842106"><g><svg xmlns="http://www.w3.org/2000/svg" xmlns:xlink="http://www.w3.org/1999/xlink" version="1.1" x="0" y="0" viewBox="13.000652495517677 19.652 542.4905092562988 536.279" enable-background="new 0 0 566.93 566.93" xml:space="preserve" height="132.0180868931747" width="133.54720059842106" class="icon-dxe-0" data-fill-palette-color="accent" id="dxe-0"><path d="M370.962 108.966C370.962 158.288 330.971 198.284 281.649 198.284 232.316 198.284 192.325 158.288 192.325 108.966 192.325 59.639 232.317 19.652 281.649 19.652 330.971 19.652 370.962 59.639 370.962 108.966" fill="#111111" data-fill-palette-color="accent"></path><path d="M542.651 314.481L429.614 222.934C419.925 213.424 409.829 210.877 394.373 211.169H174.117C158.661 210.877 148.566 213.424 138.875 222.934L25.841 314.481A42.92 42.92 0 0 0 13.159 348.778 42.9 42.9 0 0 0 31.547 380.376L149.844 461.89C154.378 465.019 159.331 467.034 164.391 468.226L164.787 555.931 284.246 555.65 403.704 555.931 404.1 468.226C409.161 467.034 414.114 465.019 418.646 461.89L536.947 380.376A42.9 42.9 0 0 0 555.332 348.778 42.9 42.9 0 0 0 542.651 314.481M123 339.262L163.9 308.823 164.104 367.577zM373.248 389.037L369.982 391.287C350.494 404.721 345.577 431.416 359.012 450.913 362.816 456.442 367.779 460.64 373.247 463.738V491.126L284.244 508.462 195.243 491.126V463.738C200.709 460.639 205.673 456.442 209.477 450.913 222.912 431.416 217.995 404.721 198.508 391.287L195.242 389.037V326.843L283.311 343.93V344.35L284.244 344.142 285.176 344.35V343.93L373.247 326.843zM404.386 367.576L404.589 308.822 445.489 339.261z" fill="#111111" data-fill-palette-color="accent"></path></svg></g></svg></g></svg></g></svg></g></svg></g><defs></defs></svg><rect width="395.52" height="136.70052247326365" fill="none" stroke="none" visibility="hidden"></rect></g></svg></g></svg>